<svg width="127" height="124" viewBox="0 0 127 124" fill="none" xmlns="http://www.w3.org/2000/svg">
<path d="M92.8554 57.8766C98.3937 52.0243 108.471 35.0171 104.472 13.8061C111.026 24.2081 117.878 47.5849 92.8554 57.8766Z" fill="#3074E9"/>
<path d="M26.3867 31.2816C24.3583 32.0904 20.1195 33.7052 18.2536 34.4115C36.8971 29.2382 39.7083 43.5263 38.7834 51.317C38.8172 66.999 50.4929 73.1819 58.3331 78.5846C88.038 95.9367 108.225 101.854 124.749 103.893C102.118 89.7694 83.2075 68.905 79.016 56.9757C100.442 45.6294 98.3032 15.8679 94.5553 2.40541C91.1144 35.4314 75.6163 42.0839 66.0426 43.3017C56.4689 44.5194 53.2084 35.054 42.1813 28.3745C31.1541 21.695 28.9222 30.2706 26.3867 31.2816Z" fill="url(#paint0_linear_171_1123)"/>
<path d="M58.3331 78.5846C50.4929 73.1819 38.8172 66.999 38.7834 51.317C14.7347 69.4348 13.0212 93.0009 15.2583 102.573C29.4877 55.8355 51.8842 74.5421 58.3331 78.5846Z" fill="#3074E9"/>
<defs>
<linearGradient id="paint0_linear_171_1123" x1="45.6833" y1="74.1535" x2="99.3472" y2="1.52346" gradientUnits="userSpaceOnUse">
<stop stop-color="white" stop-opacity="0"/>
<stop offset="0.185" stop-color="#3074E9"/>
</linearGradient>
</defs>
</svg>
