<svg width="175" height="50" viewBox="0 0 175 50" fill="none" xmlns="http://www.w3.org/2000/svg">
<rect width="25" height="25" fill="#004436"/>
<rect x="25" width="25" height="25" fill="#FF3B00"/>
<rect x="50" width="25" height="25" fill="#004436"/>
<rect x="75" width="25" height="25" fill="#FF3B00"/>
<rect x="100" width="25" height="25" fill="#004436"/>
<rect x="125" width="25" height="25" fill="#FF3B00"/>
<rect x="150" width="25" height="25" fill="#004436"/>
<path d="M75 25C75 21.717 75.6466 18.4661 76.903 15.4329C78.1594 12.3998 80.0009 9.6438 82.3223 7.32234C84.6438 5.00087 87.3998 3.15938 90.4329 1.90301C93.4661 0.646645 96.717 1.43507e-07 100 0C103.283 -1.43506e-07 106.534 0.646644 109.567 1.90301C112.6 3.15938 115.356 5.00087 117.678 7.32233C119.999 9.6438 121.841 12.3998 123.097 15.4329C124.353 18.4661 125 21.717 125 25L75 25Z" fill="#F8EFEA"/>
<circle cx="37.5" cy="12.5" r="12.5" fill="#004436"/>
<circle cx="137.5" cy="12.5" r="12.5" fill="#004436"/>
<path d="M50 25C50 21.717 50.6466 18.4661 51.903 15.4329C53.1594 12.3998 55.0009 9.6438 57.3223 7.32233C59.6438 5.00087 62.3998 3.15938 65.4329 1.90301C68.4661 0.646644 71.717 -4.3052e-07 75 0L75 25L50 25Z" fill="#4785EF"/>
<path d="M150 -1.09279e-06C153.283 -6.62265e-07 156.534 0.646644 159.567 1.90301C162.6 3.15938 165.356 5.00087 167.678 7.32234C169.999 9.6438 171.841 12.3998 173.097 15.4329C174.353 18.4661 175 21.717 175 25L150 25L150 -1.09279e-06Z" fill="#4785EF"/>
<path d="M0 25C-1.43506e-07 23.3585 0.323322 21.733 0.951506 20.2165C1.57969 18.6999 2.50043 17.3219 3.66117 16.1612C4.8219 15.0004 6.19989 14.0797 7.71646 13.4515C9.23303 12.8233 10.8585 12.5 12.5 12.5C14.1415 12.5 15.767 12.8233 17.2836 13.4515C18.8001 14.0797 20.1781 15.0004 21.3388 16.1612C22.4996 17.3219 23.4203 18.6999 24.0485 20.2165C24.6767 21.733 25 23.3585 25 25L0 25Z" fill="#F8EFEA"/>
<rect x="150" y="25" width="25" height="25" fill="#FF3B00"/>
<rect y="25" width="25" height="25" fill="#0DAB72"/>
<rect x="25" y="25" width="25" height="25" fill="#FF3B00"/>
<rect x="50" y="25" width="25" height="25" fill="#0DAB72"/>
<rect x="75" y="25" width="25" height="25" fill="#FF3B00"/>
<rect x="100" y="25" width="25" height="25" fill="#0DAB72"/>
<rect x="125" y="25" width="25" height="25" fill="#FF3B00"/>
<path d="M50 50C50 46.717 50.6466 43.4661 51.903 40.4329C53.1594 37.3998 55.0009 34.6438 57.3223 32.3223C59.6438 30.0009 62.3998 28.1594 65.4329 26.903C68.4661 25.6466 71.717 25 75 25C78.2831 25 81.534 25.6466 84.5671 26.903C87.6003 28.1594 90.3562 30.0009 92.6777 32.3223C94.9992 34.6438 96.8407 37.3998 98.097 40.4329C99.3534 43.4661 100 46.717 100 50L50 50Z" fill="url(#paint0_linear_158_605)"/>
<circle cx="12.5" cy="37.5" r="12.5" fill="#FF3B00"/>
<circle cx="112.5" cy="37.5" r="12.5" fill="#FF3B00"/>
<path d="M25 50C25 46.717 25.6466 43.4661 26.903 40.4329C28.1594 37.3998 30.0009 34.6438 32.3223 32.3223C34.6438 30.0009 37.3998 28.1594 40.4329 26.903C43.4661 25.6466 46.717 25 50 25L50 50L25 50Z" fill="#001C5E"/>
<path d="M125 25C128.283 25 131.534 25.6466 134.567 26.903C137.6 28.1594 140.356 30.0009 142.678 32.3223C144.999 34.6438 146.841 37.3998 148.097 40.4329C149.354 43.4661 150 46.717 150 50L125 50L125 25Z" fill="#001C5E"/>
<path d="M175 37.5C175 39.1415 174.677 40.767 174.048 42.2835C173.42 43.8001 172.5 45.1781 171.339 46.3388C170.178 47.4996 168.8 48.4203 167.284 49.0485C165.767 49.6767 164.142 50 162.5 50C160.858 50 159.233 49.6767 157.716 49.0485C156.2 48.4203 154.822 47.4996 153.661 46.3388C152.5 45.1781 151.58 43.8001 150.951 42.2835C150.323 40.767 150 39.1415 150 37.5L175 37.5Z" fill="#4785EF"/>
<defs>
<linearGradient id="paint0_linear_158_605" x1="75" y1="25" x2="75" y2="50" gradientUnits="userSpaceOnUse">
<stop stop-color="#4785EF"/>
<stop offset="1" stop-color="#001C5E"/>
</linearGradient>
</defs>
</svg>
