<svg width="560" height="160" viewBox="0 0 560 160" fill="none" xmlns="http://www.w3.org/2000/svg">
<path d="M80 160.003C80 149.497 82.0693 139.094 86.0896 129.388C90.11 119.682 96.0028 110.863 103.431 103.434C110.86 96.0057 119.679 90.1129 129.385 86.0926C139.091 82.0722 149.494 80.0029 160 80.0029L160 160.003L80 160.003Z" fill="#FF3B00"/>
<path d="M240 80.0029C250.506 80.0029 260.909 82.0722 270.615 86.0926C280.321 90.1129 289.14 96.0057 296.569 103.434C303.997 110.863 309.89 119.682 313.91 129.388C317.931 139.094 320 149.497 320 160.003L240 160.003L240 80.0029Z" fill="#001C5E"/>
<path d="M320 80.0029C330.506 80.0029 340.909 82.0722 350.615 86.0926C360.321 90.1129 369.14 96.0057 376.569 103.434C383.997 110.863 389.89 119.682 393.91 129.388C397.931 139.094 400 149.497 400 160.003L320 160.003L320 80.0029Z" fill="#4785EF"/>
<path d="M240 80.0029C229.494 80.0029 219.091 77.9337 209.385 73.9133C199.679 69.8929 190.86 64.0002 183.431 56.5715C176.003 49.1428 170.11 40.3236 166.09 30.6176C162.069 20.9116 160 10.5087 160 0.00292969L240 0.00293827L240 80.0029Z" fill="#004436"/>
<path d="M0 160.003C-4.5922e-07 154.75 1.03463 149.549 3.04482 144.696C5.05501 139.843 8.00138 135.433 11.7157 131.719C15.4301 128.004 19.8396 125.058 24.6927 123.048C29.5457 121.038 34.7471 120.003 40 120.003C45.2529 120.003 50.4543 121.038 55.3073 123.048C60.1604 125.058 64.5699 128.004 68.2843 131.719C71.9986 135.433 74.945 139.843 76.9552 144.696C78.9654 149.549 80 154.75 80 160.003L0 160.003Z" fill="#4785EF"/>
<circle cx="200" cy="120.003" r="40" fill="url(#paint0_linear_158_524)"/>
<path d="M560 160C549.494 160 539.091 157.931 529.385 153.91C519.679 149.89 510.86 143.997 503.431 136.569C496.003 129.14 490.11 120.321 486.089 110.615C482.069 100.909 480 90.5058 480 80C480 69.4942 482.069 59.0914 486.089 49.3853C490.11 39.6793 496.003 30.8601 503.431 23.4315C510.86 16.0028 519.679 10.11 529.385 6.08963C539.091 2.06926 549.494 8.28711e-07 560 9.5399e-07L560 160Z" fill="url(#paint1_linear_158_524)"/>
<defs>
<linearGradient id="paint0_linear_158_524" x1="160" y1="160" x2="240" y2="80" gradientUnits="userSpaceOnUse">
<stop stop-color="#FF3B00"/>
<stop offset="1" stop-color="#4785EF"/>
</linearGradient>
<linearGradient id="paint1_linear_158_524" x1="480" y1="80" x2="560" y2="80" gradientUnits="userSpaceOnUse">
<stop stop-color="#001C5E"/>
<stop offset="1" stop-color="#0DAB72"/>
</linearGradient>
</defs>
</svg>
