<svg width="480" height="161" viewBox="0 0 480 161" fill="none" xmlns="http://www.w3.org/2000/svg">
<path d="M240 80.0029C240 90.5087 237.931 100.912 233.91 110.618C229.89 120.324 223.997 129.143 216.569 136.571C209.14 144 200.321 149.893 190.615 153.913C180.909 157.934 170.506 160.003 160 160.003L160 80.0029L240 80.0029Z" fill="url(#paint0_linear_158_548)"/>
<path d="M400 80C400 74.7471 401.035 69.5457 403.045 64.6927C405.055 59.8396 408.001 55.4301 411.716 51.7157C415.43 48.0014 419.84 45.055 424.693 43.0448C429.546 41.0346 434.747 40 440 40C445.253 40 450.454 41.0346 455.307 43.0448C460.16 45.055 464.57 48.0014 468.284 51.7157C471.999 55.4301 474.945 59.8396 476.955 64.6927C478.965 69.5457 480 74.7471 480 80L400 80Z" fill="#001C5E"/>
<circle cx="120" cy="40" r="40" fill="#004436"/>
<path d="M0 160C10.5058 160 20.9086 157.931 30.6147 153.91C40.3207 149.89 49.1399 143.997 56.5685 136.569C63.9972 129.14 69.89 120.321 73.9104 110.615C77.9307 100.909 80 90.5058 80 80C80 69.4942 77.9307 59.0914 73.9104 49.3853C69.89 39.6793 63.9972 30.8601 56.5685 23.4315C49.1399 16.0028 40.3207 10.11 30.6147 6.08963C20.9086 2.06926 10.5058 8.28711e-07 5.72141e-06 9.5399e-07L0 160Z" fill="#0DAB72"/>
<circle cx="320.5" cy="80.5" r="80.5" fill="#FF3B00"/>
<circle cx="321" cy="81" r="40" fill="url(#paint1_linear_158_548)"/>
<path d="M-3.8147e-06 40C5.25287 40 10.4543 41.0346 15.3073 43.0448C20.1604 45.055 24.5699 48.0014 28.2843 51.7157C31.9986 55.4301 34.945 59.8396 36.9552 64.6927C38.9654 69.5457 40 74.7471 40 80C40 85.2529 38.9654 90.4543 36.9552 95.3073C34.945 100.16 31.9986 104.57 28.2843 108.284C24.5699 111.999 20.1604 114.945 15.3073 116.955C10.4543 118.965 5.25287 120 -3.49691e-06 120L-3.8147e-06 40Z" fill="url(#paint2_linear_158_548)"/>
<defs>
<linearGradient id="paint0_linear_158_548" x1="200" y1="80.0029" x2="200" y2="160.003" gradientUnits="userSpaceOnUse">
<stop stop-color="#4785EF"/>
<stop offset="1" stop-color="#001C5E"/>
</linearGradient>
<linearGradient id="paint1_linear_158_548" x1="320.909" y1="41" x2="321.091" y2="121" gradientUnits="userSpaceOnUse">
<stop stop-color="#F8EFEA"/>
<stop offset="1" stop-color="#FF3B00"/>
</linearGradient>
<linearGradient id="paint2_linear_158_548" x1="20" y1="40" x2="20" y2="120" gradientUnits="userSpaceOnUse">
<stop stop-color="#004436"/>
<stop offset="1" stop-color="#0DAB72"/>
</linearGradient>
</defs>
</svg>
