<svg width="560" height="740" viewBox="0 0 560 740" fill="none" xmlns="http://www.w3.org/2000/svg">
<path d="M480 500C480 489.494 482.069 479.091 486.09 469.385C490.11 459.679 496.003 450.86 503.431 443.431C510.86 436.003 519.679 430.11 529.385 426.09C539.091 422.069 549.494 420 560 420L560 500L480 500Z" fill="#FF3B00"/>
<path d="M240 660.003C250.506 660.003 260.909 662.072 270.615 666.093C280.321 670.113 289.14 676.006 296.569 683.434C303.997 690.863 309.89 699.682 313.91 709.388C317.931 719.094 320 729.497 320 740.003L240 740.003L240 660.003Z" fill="#F8EFEA"/>
<path d="M240 660.003C240 649.497 242.069 639.094 246.09 629.388C250.11 619.682 256.003 610.863 263.431 603.434C270.86 596.006 279.679 590.113 289.385 586.093C299.091 582.072 309.494 580.003 320 580.003L320 660.003L240 660.003Z" fill="url(#paint0_linear_177_2)"/>
<path d="M480 180C490.506 180 500.909 182.069 510.615 186.09C520.321 190.11 529.14 196.003 536.569 203.431C543.997 210.86 549.89 219.679 553.91 229.385C557.931 239.091 560 249.494 560 260L480 260L480 180Z" fill="#0DAB72"/>
<path d="M560 340C549.494 340 539.091 337.931 529.385 333.91C519.679 329.89 510.86 323.997 503.431 316.569C496.003 309.14 490.11 300.321 486.09 290.615C482.069 280.909 480 270.506 480 260L560 260L560 340Z" fill="#F8EFEA"/>
<path d="M0 740.003C-4.5922e-07 734.75 1.03463 729.549 3.04482 724.696C5.05501 719.843 8.00138 715.433 11.7157 711.719C15.4301 708.004 19.8396 705.058 24.6927 703.048C29.5457 701.038 34.7471 700.003 40 700.003C45.2529 700.003 50.4543 701.038 55.3073 703.048C60.1604 705.058 64.5699 708.004 68.2843 711.719C71.9986 715.433 74.945 719.843 76.9552 724.696C78.9654 729.549 80 734.75 80 740.003L0 740.003Z" fill="#F8EFEA"/>
<circle cx="200" cy="700.003" r="40" fill="url(#paint1_linear_177_2)"/>
<path d="M320 740C320 734.748 321.035 729.546 323.045 724.693C325.055 719.84 328.001 715.431 331.716 711.716C335.43 708.002 339.84 705.055 344.693 703.045C349.546 701.035 354.747 700 360 700C365.253 700 370.454 701.035 375.307 703.045C380.16 705.055 384.57 708.002 388.284 711.716C391.999 715.431 394.945 719.84 396.955 724.693C398.965 729.546 400 734.748 400 740L320 740Z" fill="url(#paint2_linear_177_2)"/>
<path d="M320 700C320 694.748 321.035 689.546 323.045 684.693C325.055 679.84 328.001 675.431 331.716 671.716C335.43 668.002 339.84 665.055 344.693 663.045C349.546 661.035 354.747 660 360 660C365.253 660 370.454 661.035 375.307 663.045C380.16 665.055 384.57 668.002 388.284 671.716C391.999 675.431 394.945 679.84 396.955 684.693C398.965 689.546 400 694.748 400 700L320 700Z" fill="#0DAB72"/>
<path d="M480 420C474.747 420 469.546 418.965 464.693 416.955C459.84 414.945 455.43 411.999 451.716 408.284C448.001 404.57 445.055 400.16 443.045 395.307C441.035 390.454 440 385.253 440 380C440 374.747 441.035 369.546 443.045 364.693C445.055 359.84 448.001 355.43 451.716 351.716C455.43 348.001 459.84 345.055 464.693 343.045C469.546 341.035 474.747 340 480 340L480 420Z" fill="url(#paint3_linear_177_2)"/>
<path d="M440 420C434.747 420 429.546 418.965 424.693 416.955C419.84 414.945 415.43 411.999 411.716 408.284C408.001 404.57 405.055 400.16 403.045 395.307C401.035 390.454 400 385.253 400 380C400 374.747 401.035 369.546 403.045 364.693C405.055 359.84 408.001 355.43 411.716 351.716C415.43 348.001 419.84 345.055 424.693 343.045C429.546 341.035 434.747 340 440 340L440 420Z" fill="#F8EFEA"/>
<circle cx="520" cy="540" r="40" transform="rotate(90 520 540)" fill="#F8EFEA"/>
<path d="M560 3.93403e-06C548.181 2.38416e-06 536.478 2.32792 525.558 6.85084C514.639 11.3738 504.718 18.0031 496.36 26.3604C488.003 34.7177 481.374 44.6392 476.851 55.5585C472.328 66.4778 470 78.181 470 90C470 101.819 472.328 113.522 476.851 124.442C481.374 135.361 488.003 145.282 496.36 153.64C504.718 161.997 514.639 168.626 525.558 173.149C536.478 177.672 548.181 180 560 180L560 3.93403e-06Z" fill="#4785EF"/>
<circle cx="480" cy="660" r="80" transform="rotate(90 480 660)" fill="#FF3B00"/>
<circle cx="440" cy="220" r="40" transform="rotate(90 440 220)" fill="url(#paint4_linear_177_2)"/>
<circle cx="480" cy="660" r="40" transform="rotate(90 480 660)" fill="url(#paint5_linear_177_2)"/>
<path d="M560 130C554.747 130 549.546 128.965 544.693 126.955C539.84 124.945 535.43 121.999 531.716 118.284C528.001 114.57 525.055 110.16 523.045 105.307C521.035 100.454 520 95.2529 520 90C520 84.7471 521.035 79.5457 523.045 74.6927C525.055 69.8396 528.001 65.4301 531.716 61.7157C535.43 58.0014 539.84 55.055 544.693 53.0448C549.546 51.0346 554.747 50 560 50L560 130Z" fill="url(#paint6_linear_177_2)"/>
<defs>
<linearGradient id="paint0_linear_177_2" x1="280" y1="580.003" x2="280" y2="660.003" gradientUnits="userSpaceOnUse">
<stop stop-color="#001C5E"/>
<stop offset="1" stop-color="#4785EF"/>
</linearGradient>
<linearGradient id="paint1_linear_177_2" x1="160" y1="740" x2="240" y2="660" gradientUnits="userSpaceOnUse">
<stop stop-color="#FF3B00"/>
<stop offset="1" stop-color="#4785EF"/>
</linearGradient>
<linearGradient id="paint2_linear_177_2" x1="360" y1="700" x2="360" y2="740" gradientUnits="userSpaceOnUse">
<stop stop-color="#0DAB72"/>
<stop offset="1" stop-color="#05452E"/>
</linearGradient>
<linearGradient id="paint3_linear_177_2" x1="480" y1="340" x2="440" y2="420" gradientUnits="userSpaceOnUse">
<stop stop-color="#001C5E"/>
<stop offset="1" stop-color="#F8EFEA"/>
</linearGradient>
<linearGradient id="paint4_linear_177_2" x1="439.909" y1="180" x2="440.091" y2="260" gradientUnits="userSpaceOnUse">
<stop stop-color="#F8EFEA"/>
<stop offset="1" stop-color="#FF3B00"/>
</linearGradient>
<linearGradient id="paint5_linear_177_2" x1="440" y1="660" x2="520" y2="660" gradientUnits="userSpaceOnUse">
<stop stop-color="#F8EFEA"/>
<stop offset="1" stop-color="#FF3B00"/>
</linearGradient>
<linearGradient id="paint6_linear_177_2" x1="540" y1="50" x2="540" y2="130" gradientUnits="userSpaceOnUse">
<stop stop-color="#F8EFEA"/>
<stop offset="1" stop-color="#4785EF"/>
</linearGradient>
</defs>
</svg>
