<svg width="385" height="81" viewBox="0 0 385 81" fill="none" xmlns="http://www.w3.org/2000/svg">
<path d="M3.6 62V18.62H8.52V33.74H8.88C9.68 32.34 10.66 31.32 11.82 30.68C13.02 30.04 14.4 29.72 15.96 29.72C18.32 29.72 20.2 30.44 21.6 31.88C23.04 33.28 23.76 35.74 23.76 39.26V62H18.84V39.62C18.84 37.42 18.42 35.96 17.58 35.24C16.78 34.48 15.72 34.1 14.4 34.1C12.84 34.1 11.46 34.86 10.26 36.38C9.1 37.9 8.52 40.02 8.52 42.74V62H3.6ZM37.6833 62.72C36.9233 62.72 36.0633 62.6 35.1033 62.36C34.1433 62.16 33.2233 61.76 32.3433 61.16C31.5033 60.52 30.8033 59.62 30.2433 58.46C29.6833 57.3 29.4033 55.76 29.4033 53.84C29.4033 50.92 30.0833 48.72 31.4433 47.24C32.8433 45.72 34.7433 44.68 37.1433 44.12C39.5833 43.56 42.3233 43.28 45.3633 43.28V39.2C45.3633 37.68 45.0233 36.46 44.3433 35.54C43.7033 34.58 42.3833 34.1 40.3833 34.1C38.5433 34.1 37.2633 34.64 36.5433 35.72C35.8633 36.76 35.5233 37.88 35.5233 39.08V39.8H30.6633C30.6233 39.6 30.6033 39.4 30.6033 39.2C30.6033 39 30.6033 38.76 30.6033 38.48C30.6033 35.6 31.5433 33.42 33.4233 31.94C35.3433 30.46 37.7833 29.72 40.7433 29.72C43.9433 29.72 46.3233 30.5 47.8833 32.06C49.4833 33.58 50.2833 35.74 50.2833 38.54V56.24C50.2833 57 50.4633 57.54 50.8233 57.86C51.1833 58.18 51.5633 58.34 51.9633 58.34H53.8833V61.76C53.6033 61.92 53.1833 62.08 52.6233 62.24C52.1033 62.4 51.4433 62.48 50.6433 62.48C49.3633 62.48 48.2833 62.12 47.4033 61.4C46.5633 60.68 45.9833 59.74 45.6633 58.58H45.3633C44.5633 59.86 43.4833 60.88 42.1233 61.64C40.8033 62.36 39.3233 62.72 37.6833 62.72ZM38.8233 58.34C39.8633 58.34 40.8833 58.06 41.8833 57.5C42.8833 56.9 43.7033 56.02 44.3433 54.86C45.0233 53.7 45.3633 52.26 45.3633 50.54V47.66C43.2033 47.66 41.3033 47.82 39.6633 48.14C38.0633 48.42 36.8033 48.98 35.8833 49.82C35.0033 50.66 34.5633 51.9 34.5633 53.54C34.5633 55.34 34.9233 56.6 35.6433 57.32C36.4033 58 37.4633 58.34 38.8233 58.34ZM67.6866 62.72C63.9666 62.72 61.2266 61.4 59.4666 58.76C57.7466 56.08 56.8866 51.9 56.8866 46.22C56.8866 40.54 57.7666 36.38 59.5266 33.74C61.2866 31.06 64.0066 29.72 67.6866 29.72C71.1266 29.72 73.5866 30.78 75.0666 32.9C76.5866 35.02 77.3466 38.1 77.3466 42.14H72.2466C72.2466 39.42 71.9266 37.4 71.2866 36.08C70.6466 34.76 69.4466 34.1 67.6866 34.1C65.7266 34.1 64.2866 35.02 63.3666 36.86C62.4866 38.7 62.0466 41.44 62.0466 45.08V47.36C62.0466 51 62.4866 53.74 63.3666 55.58C64.2866 57.42 65.7266 58.34 67.6866 58.34C69.4466 58.34 70.6866 57.66 71.4066 56.3C72.1266 54.9 72.4866 52.9 72.4866 50.3H77.3466C77.3466 52.5 77.0266 54.54 76.3866 56.42C75.7466 58.3 74.7066 59.82 73.2666 60.98C71.8666 62.14 70.0066 62.72 67.6866 62.72ZM82.9359 62V18.62H87.8559V45.08L98.0559 30.44H103.516L94.2159 43.4L103.996 62H98.4159L91.2159 47.6L87.8559 51.26V62H82.9359ZM108.325 62V30.44H113.245V62H108.325ZM108.205 24.32V18.62H113.305V24.32H108.205ZM121.198 62V30.44H124.918L125.578 34.1H125.938C126.818 32.54 127.918 31.42 129.238 30.74C130.558 30.06 131.998 29.72 133.558 29.72C135.918 29.72 137.798 30.44 139.198 31.88C140.638 33.28 141.358 35.74 141.358 39.26V62H136.438V39.62C136.438 37.42 136.018 35.96 135.178 35.24C134.378 34.48 133.318 34.1 131.998 34.1C130.438 34.1 129.058 34.86 127.858 36.38C126.698 37.9 126.118 40.02 126.118 42.74V62H121.198ZM153.541 72.92C150.981 72.92 149.041 72.18 147.721 70.7C146.401 69.26 145.741 67.5 145.741 65.42C145.741 63.9 146.101 62.52 146.821 61.28C147.581 60.04 148.581 59.18 149.821 58.7C149.021 58.18 148.381 57.5 147.901 56.66C147.461 55.78 147.241 54.88 147.241 53.96C147.241 52.68 147.641 51.58 148.441 50.66C149.281 49.7 150.361 48.98 151.681 48.5C150.561 47.58 149.661 46.44 148.981 45.08C148.341 43.68 148.021 42.1 148.021 40.34C148.021 37.02 148.941 34.42 150.781 32.54C152.621 30.66 155.141 29.72 158.341 29.72C159.981 29.72 161.501 30.1 162.901 30.86C164.301 30.1 165.261 29.24 165.781 28.28C166.301 27.32 166.641 26.34 166.801 25.34H171.121C171.121 27.22 170.641 28.84 169.681 30.2C168.761 31.56 167.481 32.46 165.841 32.9C166.721 33.78 167.401 34.86 167.881 36.14C168.401 37.38 168.661 38.78 168.661 40.34C168.661 43.62 167.741 46.2 165.901 48.08C164.101 49.96 161.661 50.92 158.581 50.96H155.281C154.481 50.96 153.801 51.24 153.241 51.8C152.681 52.32 152.401 52.98 152.401 53.78C152.401 54.54 152.681 55.2 153.241 55.76C153.841 56.32 154.521 56.6 155.281 56.6H164.281C166.561 56.6 168.361 57.34 169.681 58.82C171.041 60.26 171.721 61.98 171.721 63.98C171.721 65.62 171.361 67.12 170.641 68.48C169.961 69.84 168.921 70.92 167.521 71.72C166.161 72.52 164.481 72.92 162.481 72.92H153.541ZM154.321 68.66H163.021C164.061 68.66 164.941 68.28 165.661 67.52C166.381 66.8 166.741 65.94 166.741 64.94C166.741 63.9 166.441 63.02 165.841 62.3C165.241 61.62 164.301 61.28 163.021 61.28H154.321C153.081 61.28 152.161 61.62 151.561 62.3C150.961 63.02 150.661 63.9 150.661 64.94C150.661 65.94 150.961 66.8 151.561 67.52C152.161 68.28 153.081 68.66 154.321 68.66ZM158.281 46.88C160.041 46.88 161.381 46.3 162.301 45.14C163.221 43.94 163.681 42.34 163.681 40.34C163.681 38.22 163.221 36.6 162.301 35.48C161.381 34.36 160.041 33.8 158.281 33.8C156.561 33.8 155.241 34.4 154.321 35.6C153.401 36.76 152.941 38.34 152.941 40.34C152.941 42.42 153.401 44.04 154.321 45.2C155.241 46.32 156.561 46.88 158.281 46.88ZM228.472 27.0195V20.4717H236.338V27.0195H228.472ZM228.472 62V29.041H236.338V62H228.472ZM239.458 62V29.041H247.324V33.2378C247.617 31.978 248.159 30.9087 248.95 30.0298C249.756 29.1362 250.869 28.6895 252.29 28.6895C254.575 28.6895 256.23 29.3926 257.256 30.7988C258.296 32.2051 258.816 34.1313 258.816 36.5776V62H251.06V37.3906C251.06 36.7461 250.928 36.1528 250.664 35.6108C250.4 35.0542 249.946 34.7759 249.302 34.7759C248.701 34.7759 248.254 34.9883 247.961 35.4131C247.683 35.8232 247.507 36.3433 247.434 36.9731C247.361 37.5884 247.324 38.2036 247.324 38.8188V62H239.458ZM262.749 27.0195V20.4717H270.615V27.0195H262.749ZM264.419 67.7129C262.749 67.7129 261.636 67.5225 261.079 67.1416V61.8682C261.343 61.9414 261.584 61.978 261.804 61.978C262.229 61.978 262.493 61.8315 262.595 61.5386C262.698 61.2456 262.749 60.8721 262.749 60.418V29.041H270.615V60.1982C270.615 62.542 270.146 64.3804 269.209 65.7134C268.286 67.0464 266.689 67.7129 264.419 67.7129ZM280.085 62.3516C278.328 62.3516 276.98 61.9854 276.042 61.2529C275.12 60.5205 274.49 59.5024 274.153 58.1987C273.816 56.8804 273.647 55.3423 273.647 53.5845V29.041H281.558V52.6616C281.558 53.98 281.66 54.9028 281.865 55.4302C282.07 55.9429 282.554 56.1992 283.315 56.1992C284.136 56.1992 284.648 55.833 284.854 55.1006C285.073 54.3682 285.183 53.4233 285.183 52.2661V29.041H293.027V62H285.161V58.4844C284.663 59.7441 284.062 60.7036 283.359 61.3628C282.671 62.022 281.58 62.3516 280.085 62.3516ZM305.222 62.3516C298.718 62.3516 295.466 59.0557 295.466 52.4639V49.8491H303.376V53.7163C303.376 54.4634 303.523 55.0493 303.816 55.4741C304.109 55.8989 304.578 56.1113 305.222 56.1113C306.365 56.1113 306.936 55.2544 306.936 53.5405C306.936 52.105 306.636 51.0356 306.035 50.3325C305.435 49.6147 304.702 48.9263 303.838 48.2671L299.641 45.0371C298.323 44.0117 297.319 42.9277 296.631 41.7852C295.942 40.6426 295.598 39.0532 295.598 37.0171C295.598 35.1274 296.045 33.5674 296.938 32.3369C297.847 31.1064 299.041 30.1909 300.52 29.5903C302.014 28.9897 303.625 28.6895 305.354 28.6895C311.741 28.6895 314.934 31.8755 314.934 38.2476V38.8628H306.804V37.6104C306.804 36.9512 306.687 36.314 306.453 35.6987C306.233 35.0835 305.793 34.7759 305.134 34.7759C304.021 34.7759 303.464 35.3618 303.464 36.5337C303.464 37.7202 303.933 38.6504 304.871 39.3242L309.749 42.8838C311.272 43.9824 312.546 45.2861 313.572 46.7949C314.612 48.3037 315.132 50.3105 315.132 52.8154C315.132 55.9209 314.246 58.2866 312.473 59.9126C310.715 61.5386 308.298 62.3516 305.222 62.3516ZM324.316 62.3516C322.192 62.3516 320.757 61.9048 320.01 61.0112C319.277 60.103 318.911 58.7188 318.911 56.8584V36.314H316.692V30.3154H318.911V23.3281H326.558V30.3154H328.777V36.314H326.558V55.0127C326.558 55.5547 326.646 55.9355 326.821 56.1553C326.997 56.375 327.334 56.4849 327.832 56.4849C328.184 56.4849 328.499 56.4556 328.777 56.397V61.7583C328.601 61.8169 328.052 61.9268 327.129 62.0879C326.206 62.2637 325.269 62.3516 324.316 62.3516ZM331.26 27.0195V20.4717H339.126V27.0195H331.26ZM331.26 62V29.041H339.126V62H331.26ZM352.156 62.3516C348.464 62.3516 345.842 61.4067 344.29 59.5171C342.751 57.6274 341.982 54.8516 341.982 51.1895V41.0381C341.982 38.2842 342.275 35.9917 342.861 34.1606C343.447 32.3296 344.473 30.96 345.938 30.0518C347.402 29.1436 349.438 28.6895 352.046 28.6895C353.862 28.6895 355.488 29.0117 356.924 29.6562C358.374 30.3008 359.517 31.2456 360.352 32.4907C361.187 33.7358 361.604 35.2593 361.604 37.061V42.0928H353.584V37.4785C353.584 36.7168 353.474 36.0796 353.254 35.5669C353.035 35.0396 352.559 34.7759 351.826 34.7759C350.537 34.7759 349.893 35.6914 349.893 37.5225V53.4966C349.893 54.1704 350.039 54.793 350.332 55.3643C350.625 55.9209 351.108 56.1992 351.782 56.1992C352.471 56.1992 352.947 55.9282 353.21 55.3862C353.489 54.8296 353.628 54.1851 353.628 53.4526V47.9155H361.604V53.6724C361.604 55.4888 361.194 57.0488 360.374 58.3525C359.568 59.6416 358.455 60.6304 357.034 61.3188C355.613 62.0073 353.987 62.3516 352.156 62.3516ZM373.579 62.3516C371.235 62.3516 369.368 61.9121 367.976 61.0332C366.584 60.1543 365.588 58.8872 364.988 57.2319C364.387 55.5767 364.087 53.5845 364.087 51.2554V38.0059C364.087 34.9443 364.966 32.6299 366.724 31.0625C368.481 29.4805 370.898 28.6895 373.975 28.6895C380.303 28.6895 383.467 31.7949 383.467 38.0059V40.4009C383.467 43.3013 383.438 45.2495 383.379 46.2456H371.953V52.6177C371.953 53.2036 371.99 53.7822 372.063 54.3535C372.136 54.9102 372.297 55.3716 372.546 55.7378C372.81 56.104 373.228 56.2871 373.799 56.2871C374.619 56.2871 375.132 55.9355 375.337 55.2324C375.542 54.5146 375.645 53.5845 375.645 52.4419V49.2778H383.467V51.1455C383.467 53.6064 383.159 55.6719 382.544 57.3418C381.943 58.9971 380.918 60.2495 379.468 61.0991C378.032 61.9341 376.069 62.3516 373.579 62.3516ZM371.909 42.3345H375.645V37.896C375.645 36.7095 375.498 35.8599 375.205 35.3472C374.912 34.8198 374.473 34.5562 373.887 34.5562C373.257 34.5562 372.766 34.8052 372.415 35.3032C372.078 35.8013 371.909 36.6655 371.909 37.896V42.3345Z" fill="#004436"/>
<path d="M184.032 40.9491L185.09 46.8749L194.871 45.3238L193.548 39.1512L184.032 40.9491Z" fill="#004436"/>
<path d="M193.791 55.1229L199.875 55.7695L201.127 45.9987L194.871 45.3238L193.791 55.1229Z" fill="#004436"/>
<path d="M210.387 50.097L212.55 44.2923L203.671 40.2431L201.127 45.9987L210.387 50.097Z" fill="#004436"/>
<path d="M194.066 27.6286L188.749 30.6987L193.548 39.1512L198.987 36.0111L194.066 27.6286Z" fill="#004436"/>
<path d="M194.066 27.6286L188.749 30.6987L193.548 39.1512L198.987 36.0111L194.066 27.6286Z" fill="#4785EF"/>
<path d="M198.987 36.0111L193.548 39.1512L194.871 45.3238L201.127 45.9987L203.671 40.2431L198.987 36.0111Z" fill="#004436"/>
<path d="M198.14 40.8238L193.548 39.1512L198.987 36.0111L198.14 40.8238Z" fill="#4785EF"/>
<path d="M209.819 32.3993L205.302 28.6688L198.987 36.0111L203.671 40.2431L206.745 36.3212L209.819 32.3993Z" fill="#004436"/>
</svg>
