<svg width="32" height="32" viewBox="0 0 32 32" fill="none" xmlns="http://www.w3.org/2000/svg">
<rect width="32" height="32" fill="#004436"/>
<path d="M6.29227 16.3981L6.98448 20.2753L13.3842 19.2604L12.5187 15.2218L6.29227 16.3981Z" fill="#F8EFEA"/>
<path d="M12.6774 25.6719L16.6586 26.095L17.4777 19.702L13.3842 19.2604L12.6774 25.6719Z" fill="#F8EFEA"/>
<path d="M23.5359 22.3835L24.9512 18.5856L19.142 15.9362L17.4777 19.702L23.5359 22.3835Z" fill="#F8EFEA"/>
<path d="M12.8578 7.68264L9.37855 9.69136L12.5187 15.2218L16.0772 13.1673L12.8578 7.68264Z" fill="#4785EF"/>
<path d="M16.0772 13.1673L12.5187 15.2218L13.3842 19.2604L17.4777 19.702L19.142 15.9362L16.0772 13.1673Z" fill="#F8EFEA"/>
<path d="M15.5228 16.3161L12.5187 15.2218L16.0772 13.1673L15.5228 16.3161Z" fill="#4785EF"/>
<path d="M23.1647 10.8041L20.2091 8.36322L16.0772 13.1673L19.142 15.9362L21.1533 13.3702L23.1647 10.8041Z" fill="#F8EFEA"/>
</svg>
